<svg width="242" height="180" xmlns="http://www.w3.org/2000/svg">
 <!-- Created with SVG-edit - http://svg-edit.googlecode.com/ -->
 <g>
  <title>Layer 1</title>
  <g id="svg_14">
   <path stroke="#101656" id="svg_7" d="m177.007095,1.203857c-0.328705,0.015091 -0.653564,0.041641 -0.9823,0.071854c-5.335846,0.54895 -10.047791,4.012878 -12.43692,9.187866l-1.266632,3.914368c0.2771,-1.359024 0.694336,-2.672684 1.266632,-3.914368c-4.261292,-4.527634 -10.250885,-6.621155 -16.166412,-5.636871c-5.915741,0.976715 -11.052246,4.910034 -13.862366,10.61882c-7.920715,-5.008453 -17.806122,-4.705566 -25.446213,0.791199c-7.643768,5.489182 -11.716858,15.207077 -10.479736,25.019516l0.808655,3.990112c-0.36557,-1.306091 -0.638733,-2.634888 -0.808655,-3.990112l-0.121826,0.367188c-6.64682,0.742035 -12.097198,6.026794 -13.507874,13.102203c-1.417908,7.067902 1.525146,14.328735 7.289398,17.985718l8.999054,2.237305c-3.142548,0.268829 -6.277527,-0.511047 -8.999054,-2.237305c-4.445984,5.103149 -5.468842,12.663086 -2.536926,18.90567c2.935699,6.242584 9.194733,9.835205 15.656952,9.017517l3.929047,-1.063782c-1.262939,0.541412 -2.577423,0.90094 -3.929047,1.063782c3.66684,6.924011 9.752335,11.974091 16.890244,13.984222c7.138,2.010071 14.722656,0.821533 21.044495,-3.289825c5.162506,8.339935 14.312836,12.719971 23.49646,11.24353c9.179993,-1.47641 16.753601,-8.551788 19.441925,-18.152313l0.934235,-5.364197c-0.14386,1.824646 -0.443085,3.615204 -0.934235,5.364197c6.314484,4.247559 14.257477,4.489807 20.782349,0.624634c6.524841,-3.857452 10.59436,-11.216919 10.653412,-19.234955l-2.337463,-11.977905l-9.213196,-8.101257c7.119415,4.576813 11.613342,11.542419 11.550659,20.079163c8.47464,0.090881 15.66803,-7.347931 18.899017,-15.896027c3.227448,-8.532867 2.005219,-18.273468 -3.20517,-25.587402c2.160217,-5.451294 2.030975,-11.64093 -0.354431,-16.978729c-2.381958,-5.333984 -6.790833,-9.301422 -12.082581,-10.857254c-1.181641,-7.0755 -6.066986,-12.761566 -12.521912,-14.627884c-6.447327,-1.862534 -13.323059,0.439133 -17.639709,5.920807l-2.629211,4.535217c0.668335,-1.642975 1.547211,-3.172379 2.629211,-4.535217c-3.053894,-4.308136 -7.82489,-6.74231 -12.809875,-6.579483l0,0z" stroke-linecap="null" stroke-linejoin="null" stroke-dasharray="null" stroke-width="2" fill="#007fff"/>
   <path stroke="#00007f" id="svg_8" d="m98.079071,13.563477c-0.341278,0.009949 -0.678955,0.040558 -1.020203,0.075974c-5.548248,0.566254 -10.437317,4.172134 -12.919098,9.541992l-1.317902,4.065308c0.282318,-1.409058 0.723389,-2.775452 1.317902,-4.065308c-4.428741,-4.705215 -10.65033,-6.877823 -16.790924,-5.860123c-6.149445,1.021255 -11.482849,5.10582 -14.401642,11.033127c-8.23172,-5.197418 -18.496399,-4.882874 -26.430328,0.819855c-7.942322,5.703217 -12.17099,15.806335 -10.888336,25.993225l0.842377,4.14093c-0.381958,-1.355865 -0.665833,-2.73703 -0.842377,-4.14093l-0.124298,0.383392c-6.904358,0.769623 -12.568237,6.259674 -14.033478,13.605408c-1.470764,7.347351 1.584137,14.886902 7.574036,18.684784l9.347198,2.328796c-3.263733,0.276428 -6.524017,-0.536011 -9.347198,-2.328796c-4.622253,5.301666 -5.683014,13.152679 -2.635254,19.638458c3.045654,6.484558 9.550568,10.217194 16.261597,9.368866l4.081299,-1.104156c-1.31723,0.561584 -2.678955,0.929199 -4.081299,1.104156c3.80896,7.193237 10.125031,12.437195 17.541199,14.5271c7.420685,2.084351 15.296967,0.852234 21.863953,-3.418396c5.360168,8.664215 14.865997,13.21405 24.401001,11.680389c9.541931,-1.530823 17.406952,-8.884308 20.201782,-18.855774l0.970398,-5.571167c-0.147522,1.889557 -0.460327,3.753174 -0.970398,5.571167c6.558914,4.408173 14.806107,4.657104 21.587662,0.650024c6.775787,-4.009552 11.007141,-11.65683 11.066162,-19.982971l-2.427734,-12.442139l-9.570343,-8.416962c7.395355,4.753174 12.062103,11.994629 11.998077,20.8591c8.801178,0.093597 16.277649,-7.635529 19.630341,-16.507019c3.353943,-8.874298 2.086456,-18.987671 -3.328094,-26.585114c2.243927,-5.657837 2.109863,-12.094086 -0.366699,-17.634735c-2.477844,-5.542786 -7.053345,-9.663879 -12.552307,-11.281006c-1.22876,-7.345764 -6.299896,-13.254532 -13.00946,-15.189285c-6.700409,-1.937469 -13.839294,0.451523 -18.327194,6.14473l-2.722809,4.715057c0.692078,-1.705994 1.6026,-3.295776 2.722809,-4.715057c-3.164001,-4.476166 -8.124329,-7.000748 -13.300415,-6.832901l0,0z" stroke-linecap="null" stroke-linejoin="null" stroke-dasharray="null" stroke-width="2" fill="#aaffff"/>
   <path stroke="#13135e" id="svg_9" d="m185.476974,67.850906c-0.307343,0.010376 -0.5979,0.036346 -0.905243,0.067535c-4.874146,0.498657 -9.184143,3.674103 -11.369537,8.402618l-1.161987,3.580627c0.249969,-1.241455 0.631622,-2.444794 1.161987,-3.580627c-3.904755,-4.143311 -9.380157,-6.056549 -14.787964,-5.159668c-5.41452,0.898621 -10.113068,4.496552 -12.680145,9.715057c-7.252136,-4.577881 -16.28772,-4.300873 -23.276367,0.721985c-6.992035,5.021179 -10.721085,13.917267 -9.589539,22.889435l0.743103,3.646515c-0.337769,-1.193024 -0.584351,-2.410278 -0.743103,-3.646515l-0.111481,0.335876c-6.076645,0.678741 -11.062241,5.513 -12.352585,11.981628c-1.297058,6.471985 1.39505,13.110291 6.664398,16.455353l8.231644,2.050018c-2.871063,0.244263 -5.742203,-0.472565 -8.231644,-2.050018c-4.066864,4.667938 -4.999115,11.581665 -2.317169,17.291901c2.681976,5.711945 8.410721,8.998199 14.321854,8.251923l3.593933,-0.972839c-1.161926,0.493256 -2.361053,0.818756 -3.593933,0.972839c3.354126,6.333832 8.913971,10.951294 15.446594,12.791779c6.532684,1.83551 13.467285,0.751648 19.253357,-3.008942c4.71875,7.628265 13.088928,11.635132 21.486084,10.284271c8.403839,-1.348572 15.328369,-7.824158 17.790771,-16.604279l0.847839,-4.908539c-0.125,1.667328 -0.39856,3.307037 -0.847839,4.908539c5.772614,3.881836 13.038269,4.100006 19.010193,0.573151c5.965118,-3.530426 9.690857,-10.265472 9.744873,-17.598297l-2.144836,-10.956482l-8.420837,-7.41214c6.51236,4.186584 10.619751,10.563324 10.565674,18.368622c7.74527,0.083099 14.328613,-6.723022 17.284119,-14.535248c2.955566,-7.815674 1.837433,-16.720367 -2.928558,-23.410736c1.976044,-4.984741 1.857758,-10.649933 -0.324188,-15.529083c-2.185486,-4.88092 -6.211792,-8.51001 -11.052185,-9.934967c-1.084229,-6.468597 -5.549683,-11.67157 -11.457397,-13.375305c-5.90094,-1.705444 -12.187073,0.398254 -16.139038,5.412476l-2.398254,4.151978c0.611359,-1.502899 1.411926,-2.903625 2.398254,-4.151978c-2.786682,-3.942474 -7.154175,-6.165649 -11.710846,-6.018463l0,0z" stroke-linecap="null" stroke-linejoin="null" stroke-dasharray="null" stroke-width="2" fill="#aad4ff"/>
   <ellipse ry="38.464779" rx="37.519805" id="svg_12" cy="80.266901" cx="145.730433" stroke-linecap="null" stroke-linejoin="null" stroke-dasharray="null" stroke-width="2" fill="#ffffff"/>
   <path stroke="#101656" id="svg_10" d="m145.095871,33.029587c-24.605286,0 -44.552048,20.447784 -44.552048,45.672699c0,25.22345 19.946762,45.681152 44.552048,45.681152c24.602509,0 44.549286,-20.457703 44.549286,-45.681152c0,-25.224915 -19.946777,-45.672699 -44.549286,-45.672699zm25.706512,42.430389c-4.45166,5.246704 -11.356201,6.982452 -17.417603,4.987457l-22.041016,25.972351c-2.338531,2.770935 -6.436768,3.049774 -9.131775,0.652313s-2.974976,-6.59906 -0.636353,-9.370087l22.059998,-26.001404c-2.730377,-5.860168 -2.001617,-13.092041 2.414642,-18.309662c4.190674,-4.948486 10.589386,-6.752167 16.389923,-5.255127l-8.438171,10.089447l2.768188,8.23819l8.345978,1.668518l8.457184,-10.126984c2.300812,5.705383 1.45752,12.486877 -2.770996,17.454987z" stroke-linecap="null" stroke-linejoin="null" stroke-dasharray="null" stroke-width="2" fill="#007fff"/>
  </g>
 </g>
</svg>